<?xml version="1.0" standalone="no"?>
<!DOCTYPE svg PUBLIC "-//W3C//DTD SVG 20010904//EN"
 "http://www.w3.org/TR/2001/REC-SVG-20010904/DTD/svg10.dtd">
<svg version="1.0" xmlns="http://www.w3.org/2000/svg"
 width="260.000000pt" height="260.000000pt" viewBox="0 0 260.000000 260.000000"
 preserveAspectRatio="xMidYMid meet">
<metadata>
Created by potrace 1.14, written by Peter Selinger 2001-2017
</metadata>
<g transform="translate(0.000000,260.000000) scale(0.100000,-0.100000)"
fill="#000000" stroke="none">
<path d="M61 1396 c0 -407 -2 -752 -4 -766 -2 -14 2 -31 7 -39 8 -11 8 -13 0
-8 -8 5 -11 -8 -9 -41 l2 -47 133 0 134 0 164 195 c90 107 263 314 385 460
122 146 224 267 227 270 4 3 73 86 156 185 167 201 174 210 235 281 24 27 71
83 104 123 33 40 70 85 82 99 l23 27 -196 3 c-148 2 -198 -1 -207 -10 -7 -7
-44 -51 -82 -98 -38 -47 -72 -87 -75 -90 -3 -3 -64 -75 -135 -160 -153 -182
-134 -160 -277 -330 -62 -74 -169 -202 -238 -284 l-125 -149 -5 559 -5 559
-146 1 -146 2 -2 -742z"/>
<path d="M2210 1519 l0 -621 -32 27 c-18 15 -73 64 -123 109 -49 44 -114 104
-145 131 -31 28 -96 86 -145 130 -49 44 -115 103 -145 130 -31 28 -94 84 -139
125 -46 41 -87 76 -91 78 -9 3 -17 -445 -9 -452 51 -41 363 -298 611 -504
l217 -180 170 -1 171 -1 0 825 0 825 -170 0 -170 0 0 -621z"/>
</g>
</svg>
